<?xml version="1.0" encoding="UTF-8" standalone="no"?>
<!DOCTYPE svg PUBLIC "-//W3C//DTD SVG 1.1//EN" "http://www.w3.org/Graphics/SVG/1.1/DTD/svg11.dtd">
<svg width="100%" height="100%" viewBox="0 0 210 209" version="1.1" xmlns="http://www.w3.org/2000/svg" xmlns:xlink="http://www.w3.org/1999/xlink" xml:space="preserve" xmlns:serif="http://www.serif.com/" style="fill-rule:evenodd;clip-rule:evenodd;stroke-linejoin:round;stroke-miterlimit:2;">
    <g transform="matrix(1,0,0,1,-2156,-998)">
        <g transform="matrix(4.166667,0,0,4.166667,2297.5725,1038.654167)">
            <g id="booklore">
                <path d="M0,30.71L-20.556,30.71C-22.09,30.71 -23.333,29.466 -23.333,27.932L-23.333,6.545L-23.33,6.542C-23.234,2.661 -21.149,-0.725 -18.056,-2.637L-18.056,13.441C-18.056,13.72 -17.759,13.888 -17.524,13.763L-17.479,13.734L-12.716,10.25C-12.588,10.156 -12.415,10.156 -12.287,10.25L-7.521,13.736L-7.476,13.765C-7.241,13.89 -6.944,13.722 -6.944,13.443L-6.944,-2.959C-3.471,-1.08 -1.111,2.595 -1.111,6.821C-1.111,6.987 -1.115,7.151 -1.122,7.315C-1.15,7.944 -0.629,8.488 0,8.488C6.136,8.488 11.111,13.462 11.111,19.599C11.111,25.735 6.136,30.71 0,30.71M-15.879,-3.674C-14.734,-4.073 -13.503,-4.29 -12.222,-4.29C-11.146,-4.29 -10.106,-4.137 -9.121,-3.851L-9.121,9.868L-11.002,8.493L-11.087,8.433C-11.971,7.84 -13.136,7.86 -14.001,8.493L-15.879,9.866L-15.879,-3.674ZM-8.749,-9.645C-22.556,-9.645 -33.749,1.548 -33.749,15.355C-33.749,29.162 -22.556,40.355 -8.749,40.355C5.058,40.355 16.251,29.162 16.251,15.355C16.251,1.548 5.058,-9.645 -8.749,-9.645" style="fill:rgb(196,167,231);fill-rule:nonzero;"/>
            </g>
        </g>
    </g>
</svg>
